# xmcd
#
# Track frame offsets:
#	150
#	18847
#	35497
#	64715
#	77100
#	100356
#	118843
#	132991
#	148373
#	166543
#	176974
#	194292
#	209333
#
# Disc length: 2991 seconds
#
# Revision: 1
# Processed by: cddbd v1.5.2PL0 Copyright (c) Steve Scherf et al.
# Submitted via: audiograbber 1.83.01
#
DISCID=bb0bad0d
DTITLE=Joyann Parker - Hard To Love
DYEAR=2018
DGENRE=Country
TTITLE0=Memphis
TTITLE1=Envy
TTITLE2=Home
TTITLE3=Dizzy
TTITLE4=Jigsaw Hearts
TTITLE5=Who What When Where Why
TTITLE6=Bluer Than You
TTITLE7=Ray
TTITLE8=Evil Hearted
TTITLE9=Take My Heart and Run
TTITLE10=Your Mama
TTITLE11=What Happened to Me
TTITLE12=Hard to Love
EXTD=
EXTT0=
EXTT1=
EXTT2=
EXTT3=
EXTT4=
EXTT5=
EXTT6=
EXTT7=
EXTT8=
EXTT9=
EXTT10=
EXTT11=
EXTT12=
PLAYORDER=
